<?xml version="1.0" encoding="utf-8"?>
<!-- Generator: Adobe Illustrator 26.4.1, SVG Export Plug-In . SVG Version: 6.00 Build 0)  -->
<svg version="1.1" id="Layer_1" xmlns="http://www.w3.org/2000/svg" xmlns:xlink="http://www.w3.org/1999/xlink" x="0px" y="0px"
	 viewBox="0 0 48 48" style="enable-background:new 0 0 48 48;" xml:space="preserve">
<style type="text/css">
	.st0{fill:#FFFFFF;}
</style>
<path class="st0" d="M9,37.2c2-1.9,4.3-3.4,6.8-4.5c2.5-1.1,5.3-1.7,8.2-1.7s5.7,0.6,8.2,1.7c2.5,1.1,4.8,2.7,6.8,4.5V9H9V37.2z
	 M24.1,27c1.9,0,3.6-0.7,4.9-2c1.3-1.3,2-3,2-4.9s-0.7-3.6-2-4.9s-3-2-4.9-2s-3.6,0.7-4.9,2s-2,3-2,4.9s0.7,3.6,2,4.9
	C20.5,26.3,22.2,27,24.1,27z M9,42c-0.8,0-1.5-0.3-2.1-0.9C6.3,40.5,6,39.8,6,39V9c0-0.8,0.3-1.5,0.9-2.1S8.2,6,9,6h30
	c0.8,0,1.5,0.3,2.1,0.9C41.7,7.5,42,8.2,42,9v30c0,0.8-0.3,1.5-0.9,2.1C40.5,41.7,39.8,42,39,42H9z M11.8,39h24.5v-0.5
	c-1.8-1.5-3.7-2.7-5.8-3.5s-4.2-1.2-6.5-1.2s-4.4,0.4-6.5,1.2s-4,1.9-5.8,3.5C11.7,38.5,11.7,39,11.8,39z M24.1,24
	c-1.1,0-2-0.4-2.8-1.1s-1.1-1.7-1.1-2.8c0-1.1,0.4-2,1.1-2.8s1.7-1.1,2.8-1.1c1.1,0,2,0.4,2.8,1.1S28,19,28,20c0,1.1-0.4,2-1.1,2.8
	S25.2,23.9,24.1,24z"/>
</svg>
