<?xml version="1.0" encoding="utf-8"?>
<!-- Generator: Adobe Illustrator 26.4.1, SVG Export Plug-In . SVG Version: 6.00 Build 0)  -->
<svg version="1.1" id="Layer_1" xmlns="http://www.w3.org/2000/svg" xmlns:xlink="http://www.w3.org/1999/xlink" x="0px" y="0px"
	 viewBox="0 0 48 48" style="enable-background:new 0 0 48 48;" xml:space="preserve">
<style type="text/css">
	.st0{fill:#FFFFFF;}
</style>
<path class="st0" d="M4,34V6.1c0-0.5,0.2-0.9,0.7-1.4S5.5,4,6,4h26c0.5,0,1,0.2,1.4,0.7C33.8,5.1,34,5.6,34,6.1v17.8
	c0,0.5-0.2,0.9-0.7,1.4S32.4,26,31.9,26H12L4,34z M14.1,36c-0.5,0-0.9-0.2-1.4-0.7c-0.5-0.5-0.7-0.9-0.7-1.4V29h25V12h5
	c0.5,0,0.9,0.2,1.3,0.7c0.4,0.5,0.7,0.9,0.7,1.4v29.8L36,36H14.1z M31,7H7v19.8l3.8-3.8H31V7z M7,7v19.8V7z"/>
</svg>
