<?xml version="1.0" encoding="utf-8"?>
<!-- Generator: Adobe Illustrator 26.5.2, SVG Export Plug-In . SVG Version: 6.00 Build 0)  -->
<svg version="1.1" id="Layer_1" xmlns="http://www.w3.org/2000/svg" xmlns:xlink="http://www.w3.org/1999/xlink" x="0px" y="0px"
	 viewBox="0 0 1920 1080" style="enable-background:new 0 0 1920 1080;" xml:space="preserve">
<style type="text/css">
	.st0{fill:#FFFFFF;}
</style>
<g>
	<path class="st0" d="M952.56,582.16c0,5.25,0,10.5,0,15.75c-0.26,0.93-0.63,1.85-0.76,2.8c-4.22,30.94-8.38,61.88-12.65,92.81
		c-1.32,9.54-8.41,15.36-17.97,14.81c-8.36-0.49-16.71-1.09-25.04-1.94c-11.18-1.14-16.84-7.76-16.72-19.06
		c0.34-31.62,0.28-63.26,1.21-94.87c0.36-12.38-1.28-23.67-8.1-34.12c-2.25-3.45-3.79-7.36-5.66-11.07
		c-0.31,0.09-0.62,0.17-0.93,0.26c0,1.45,0,2.9,0,4.35c0,59.13,0,118.26,0,177.38c0,8.17-2.29,10.42-10.5,10.42
		c-63.24,0-126.49,0-189.73,0c-1,0-2,0.04-3-0.02c-4.26-0.26-6.97-2.78-7.42-6.99c-0.16-1.49-0.12-3-0.12-4.49
		c0-58.75,0-117.51,0-176.26c0-1.49,0-2.98,0-4.47c-0.33-0.02-0.66-0.03-1-0.05c-4.04,8-8.16,15.96-12.05,24.03
		c-0.93,1.93-1.5,4.25-1.48,6.39c0.27,36.38,0.67,72.75,1.02,109.12c0.02,1.62-0.02,3.26-0.22,4.86c-0.91,7.16-6.4,13.27-13.52,14.1
		c-9.8,1.14-19.65,2-29.5,2.4c-8.33,0.34-15.23-5.8-16.37-14.05c-3.32-23.87-6.47-47.77-9.76-71.65
		c-1.14-8.25-2.48-16.47-3.73-24.71c0-5.25,0-10.5,0-15.75c0.19-1.34,0.51-2.67,0.55-4.01c1.11-35.6,2.15-71.2,3.35-106.79
		c0.17-4.97,0.62-10.03,1.81-14.84c7.41-30.14,27.16-48.66,55.99-58.08c16.36-5.35,32.95-9.96,49.4-15.01
		c1.7-0.52,3.43-1.53,4.71-2.77c6.76-6.49,13.39-13.11,20.06-19.7c5.29-5.22,8.75-5.22,13.93,0.13
		c13.13,13.55,26.25,27.11,39.32,40.72c0.92,0.96,1.35,2.4,2.29,4.15c2.16-2.5,3.09-3.69,4.13-4.76
		c13.3-13.56,26.59-27.12,39.92-40.66c4.54-4.61,8.33-4.64,12.86-0.09c6.61,6.64,13.11,13.4,19.78,19.98
		c1.35,1.33,3.17,2.43,4.98,2.99c16.45,5.07,32.95,9.96,49.42,14.98c34.2,10.43,56.58,38.34,57.62,71.83
		c1.1,35.6,2.17,71.2,3.28,106.79C952.02,578.75,952.36,580.45,952.56,582.16z M934.37,516.81c0-8.47,0.21-16.45-0.05-24.42
		c-0.34-10.23-0.04-20.63-1.81-30.64c-4.23-23.91-19.21-39.44-41.6-47.41c-16.55-5.89-33.63-10.3-50.41-15.56
		c-2.69-0.84-4.23-0.37-6.13,1.61c-22.12,23.12-44.33,46.15-66.52,69.2c-5.44,5.65-9.08,5.69-14.44,0.12
		c-22.28-23.14-44.57-46.26-66.78-69.47c-1.82-1.9-3.35-2.27-5.83-1.5c-15.26,4.72-30.58,9.21-45.85,13.87
		c-25.46,7.77-48.07,29.43-47.7,62.97c0.13,12.11-0.55,24.24-1.15,36.35c-0.15,3.07,0.85,4.04,3.65,4.67
		c15.57,3.53,31.1,7.27,46.65,10.91c3.15,0.74,7.02,2.82,9.29,1.7c2.46-1.22,3.32-5.52,5.09-8.34c3.57-5.69,5-11.78,4.47-18.51
		c-0.37-4.72-0.11-9.49-0.06-14.24c0.07-5.66,2.77-8.88,7.38-8.94c4.76-0.06,7.5,3.22,7.6,9.08c0.02,1.12,0.01,2.25,0.01,3.37
		c0,44.5,0,89,0,133.49c0,1.59,0,3.19,0,4.87c60.43,0,120.38,0,180.78,0c0-1.74,0-3.34,0-4.94c0-44.87,0-89.75,0.01-134.62
		c0-1.75-0.02-3.52,0.25-5.23c0.57-3.57,3.46-5.96,7.04-6.04c4.45-0.1,7.54,2.9,7.64,7.87c0.15,7.25,0.01,14.5,0.09,21.75
		c0.02,1.59,0.13,3.32,0.78,4.72c2.38,5.09,4.89,10.12,7.63,15.02c0.51,0.92,2.4,1.83,3.4,1.6
		C896.75,525.79,915.68,521.26,934.37,516.81z M670.4,724.54c60.18,0,120.14,0,180.28,0c0-14.42,0-28.72,0-43.28
		c-1.76,0-3.25,0-4.73,0c-29.74,0-59.48,0-89.22,0c-1.25,0-2.5,0.05-3.75-0.05c-3.83-0.3-6.57-2.95-6.94-6.62
		c-0.39-3.85,1.91-7.15,5.79-8.02c1.44-0.32,2.98-0.29,4.47-0.29c29.99-0.02,59.98-0.01,89.97-0.01c1.45,0,2.9,0,4.41,0
		c0-7.3,0-14.09,0-20.91c-60.22,0-120.16,0-180.26,0c0,7,0,13.81,0,20.92c5.6,0,10.96-0.1,16.32,0.03c4.88,0.12,7.99,3.25,7.91,7.66
		c-0.07,4.29-3.11,7.2-7.83,7.27c-5.43,0.09-10.87,0.02-16.41,0.02C670.4,696.02,670.4,710.22,670.4,724.54z M626.29,577.79
		c-14.44-3.42-28.04-6.63-42.4-10.03c0,10.04-0.68,19.46,0.16,28.74c1.3,14.41,3.64,28.73,5.55,43.08
		c1.1,8.26,2.23,16.52,3.38,25.01c10.76-0.82,21.21-1.55,31.63-2.55c0.74-0.07,1.86-2.06,1.86-3.17c0.06-9.12-0.16-18.24-0.18-27.36
		C626.26,613.66,626.29,595.8,626.29,577.79z M895.5,578.65c0,1.37,0.01,2.6,0,3.83c-0.29,23.48-0.57,46.95-0.86,70.43
		c-0.11,8.91-0.12,8.91,8.59,9.67c0.62,0.05,1.24,0.17,1.86,0.22c7.57,0.59,15.15,1.18,23.41,1.82c2.31-31.96,11.5-63.05,8.02-95.68
		C922.87,572.17,909.33,575.37,895.5,578.65z M697.54,390.06c18.15,18.85,36.49,37.92,55.52,57.68c0-9.21-0.1-17.3,0.06-25.38
		c0.05-2.69-0.69-4.63-2.61-6.58c-12.24-12.46-24.36-25.05-36.47-37.63c-0.85-0.88-1.38-2.06-2.08-3.15
		C706.76,380.43,702.31,385.08,697.54,390.06z M824.07,389.55c-4.94-4.73-9.49-9.09-12.76-12.21
		c-13.87,13.19-27.99,26.6-42.07,40.05c-0.57,0.55-1.11,1.47-1.12,2.22c-0.08,9.05-0.05,18.09-0.05,28.13
		C787.17,427.89,805.56,408.78,824.07,389.55z M585.5,552.68c13.84,3.29,27.75,6.63,41.69,9.86c0.86,0.2,2.47-0.18,2.8-0.79
		c3.14-5.86,6.07-11.82,9.23-18.08c-18.12-4.29-35.63-8.44-53.72-12.72C585.5,538.38,585.5,545.31,585.5,552.68z M882.36,544.58
		c3.4,6.74,6.58,13.03,9.81,19.42c14.86-3.52,29.37-6.97,43.45-10.31c0-7.47,0-14.41,0-21.73
		C917.61,536.23,900.21,540.35,882.36,544.58z M894.4,677.06c0,4.29-0.2,7.91,0.12,11.48c0.09,1.04,1.58,2.69,2.57,2.79
		c8.06,0.83,16.15,1.33,24.23,2.01c2.09,0.18,2.96-0.76,3.21-2.67c0.46-3.56,0.95-7.11,1.5-11.18
		C915.49,678.68,905.23,677.89,894.4,677.06z M595.08,679.52c0.56,4.15,1.04,7.61,1.5,11.07c0.24,1.84,0.97,2.95,3.13,2.77
		c8.08-0.68,16.17-1.19,24.23-1.99c0.98-0.1,2.55-1.48,2.62-2.36c0.29-3.81,0.12-7.65,0.12-11.93
		C615.97,677.91,605.71,678.7,595.08,679.52z"/>
	<path class="st0" d="M706.45,540.38c0-6.74-0.13-13.49,0.02-20.23c0.3-13.73,10.54-24.37,24.23-25.16
		c4.48-0.26,8.99-0.27,13.47-0.06c14.35,0.68,24.83,11.14,25.14,25.53c0.3,13.48,0.3,26.97-0.01,40.45
		c-0.31,13.64-9.8,23.9-23.39,25.28c-5.79,0.59-11.76,0.48-17.54-0.23c-12.48-1.53-21.6-12-21.9-24.61
		C706.31,554.37,706.45,547.37,706.45,540.38z M721.43,540.52c0,6.49-0.07,12.98,0.02,19.47c0.1,6.88,4.31,11.21,11.15,11.49
		c3.61,0.14,7.24,0.17,10.85-0.03c6.39-0.35,10.82-4.68,10.89-11.06c0.16-13.23,0.17-26.46-0.01-39.69
		c-0.09-6.29-4.36-10.43-10.66-10.78c-3.73-0.21-7.49-0.21-11.22-0.04c-6.96,0.31-10.92,4.49-11.01,11.54
		C721.36,527.79,721.42,534.16,721.43,540.52z"/>
	<path class="st0" d="M796.58,571.36c0-18.27,0-36.08,0-54.18c-1.14,0.48-2.01,0.9-2.92,1.23c-3.56,1.28-7.24,0.01-9.08-3.12
		c-1.75-2.97-1.41-7.08,1.38-9.19c4.86-3.69,9.83-7.3,15.1-10.37c4.8-2.79,10.45,0.75,10.62,6.43c0.21,6.74,0.07,13.48,0.08,20.22
		c0,14.86,0,29.72,0,44.57c0,1.35,0,2.69,0,4.24c1.3,0.14,2.25,0.25,3.2,0.35c3.96,0.42,6.79,3.27,6.99,7.03
		c0.2,3.79-2.58,7.32-6.68,7.71c-4.09,0.39-8.23,0.19-12.34,0.22c-2.87,0.02-5.75,0.08-8.61-0.02c-5.18-0.17-8.38-3.15-8.35-7.64
		c0.03-4.41,2.99-7.08,8.12-7.34C794.8,571.49,795.53,571.43,796.58,571.36z"/>
	<path class="st0" d="M727.77,673.88c-0.05,4.18-3.24,7.38-7.34,7.34c-4.2-0.04-7.64-3.58-7.48-7.7c0.16-4.02,3.63-7.3,7.62-7.19
		C724.66,666.44,727.82,669.76,727.77,673.88z"/>
</g>
</svg>
